<?xml version="1.0" encoding="UTF-8"?>
<!-- Created with Inkscape (http://www.inkscape.org/) -->
<svg width="85mm" height="85mm" version="1.1" viewBox="0 0 85 85" xmlns="http://www.w3.org/2000/svg" xmlns:xlink="http://www.w3.org/1999/xlink">
 <defs>
  <pattern id="pattern25" x="-7" width="6" patternTransform="matrix(.44174 .25026 -.25504 .43346 -8.7415 -9.7543)" preserveAspectRatio="xMidYMid" xlink:href="#stripes-grid"/>
  <pattern id="stripes-grid" width="3" height="10" fill="#ef562f" patternTransform="scale(2)" patternUnits="userSpaceOnUse" preserveAspectRatio="xMidYMid">
   <rect width="2" height="10"/>
  </pattern>
  <mask id="mask-powermask-path-effect31" maskUnits="userSpaceOnUse">
   <path id="mask-powermask-path-effect31_box" d="m18.592 32.934h33.138v55.932h-33.138z" fill="#fff"/>
   <path d="m22.913 55.664 0.90677 0.52352c0.89821 0.51858 1.8482 0.28574 2.3989-0.66808 0.51858-0.89821 0.28587-1.7397-0.6209-2.2633l-0.97093-0.56056zm0.53281-0.10299 1.3582-2.3525 0.57314 0.33091c0.72285 0.41734 0.88043 1.0729 0.44581 1.8257-0.43215 0.74851-1.0769 0.94657-1.7826 0.53911zm2.4698 1.8365 0.34218 0.19756 1.1903-2.0616-0.34218-0.19755zm1.6447-2.4437c0.15398 0.0889 0.29566 0.05093 0.38456-0.10304 0.0889-0.15398 0.05094-0.29566-0.10304-0.38456-0.15398-0.0889-0.29566-0.05094-0.38456 0.10304-0.0889 0.15398-0.05094 0.29566 0.10304 0.38456zm0.0073 3.4545c0.50899 0.29386 0.95951 0.23461 1.1793-0.14606 0.43709-0.75707-0.95773-1.186-0.68856-1.6522 0.10372-0.17964 0.36286-0.184 0.67082-0.0062 0.17537 0.10125 0.35845 0.25828 0.49924 0.4194l0.24178-0.2311c-0.13339-0.17396-0.32074-0.33346-0.53888-0.4594-0.53465-0.30868-1.0126-0.27099-1.2374 0.11824-0.42722 0.73996 0.97814 1.1407 0.68675 1.6454-0.10865 0.1882-0.3372 0.19882-0.6195 0.03583-0.21814-0.12594-0.47442-0.35374-0.63822-0.57378l-0.24178 0.2311c0.17351 0.24275 0.42551 0.46808 0.68642 0.61872zm1.3848 0.74251 0.34218 0.19756 0.91369-1.5826 0.2167-0.51362-0.2823-0.16298zm1.0381-1.1857c0.2704-0.19176 0.60984-0.20679 0.89214-0.04381 0.08127 0.04692 0.15085 0.1042 0.20447 0.16938l0.26828-0.26712c-0.07254-0.0818-0.15248-0.15077-0.24658-0.2051-0.27802-0.16052-0.62108-0.15898-0.91829 1.98e-4zm1.2597 2.5693c0.29085 0.16792 0.66006 0.21 1.0005 0.10431l0.04468-0.26506c-0.26378 0.08153-0.54727 0.04902-0.76968-0.07939-0.32079-0.18521-0.39606-0.47959-0.20344-0.81321l0.74083-1.2832-0.34218-0.19755-0.78035 1.3516c-0.26423 0.45766-0.13094 0.92812 0.30961 1.1825zm0.75182 0.37703 0.23952 0.13829 1.1903-2.0616-0.34218-0.19756-1.052 1.8221zm1.8316 1.1145c0.57314 0.33091 1.2149 0.10833 1.6001-0.55892 0.35807-0.62019 0.2426-1.24-0.28778-1.5463-0.29513-0.17039-0.64723-0.20259-0.95101-0.08142l-0.04648 0.25831c0.24601-0.08038 0.51667-0.05528 0.7348 0.07066 0.38495 0.22225 0.45523 0.67344 0.18359 1.1439-0.2667 0.46194-0.67119 0.63902-1.0433 0.42418-0.30796-0.1778-0.44853-0.527-0.34591-0.87266l-0.27696 0.15376c-0.11334 0.41361 0.06079 0.79359 0.43291 1.0084zm-1.4179 0.36186 0.34218 0.19756 1.5879-2.7502 0.03564-0.29879-0.23952-0.13829zm3.6715 0.91074c0.14115 0.08149 0.30205 0.12876 0.42512 0.14279l0.06624-0.29253c-0.08144-0.0071-0.18542-0.04432-0.25814-0.0863-0.21386-0.12347-0.27598-0.34184-0.15745-0.54714l1.1927-2.0659-0.34218-0.19756-1.2199 2.1129c-0.19756 0.34218-0.08283 0.71637 0.29357 0.93368zm0.13468-2.3175 1.1848 0.68404 0.16545-0.28657-1.1848-0.68404zm0.716 2.7801 0.34218 0.19755 1.1903-2.0616-0.34218-0.19756zm1.6447-2.4437c0.15398 0.0889 0.29566 0.05094 0.38456-0.10304 0.0889-0.15398 0.05093-0.29566-0.10304-0.38456-0.15398-0.0889-0.29566-0.05094-0.38456 0.10304-0.0889 0.15398-0.05094 0.29566 0.10304 0.38456zm-0.0835 3.345 0.33362 0.19262 1.9944-1.5974-0.34218-0.19756-1.8651 1.5808 0.1882 0.10866 0.4493-2.3982-0.38067-0.21978zm2.1438 1.2948c0.50899 0.29386 0.95951 0.23461 1.1793-0.14606 0.43709-0.75706-0.95773-1.186-0.68856-1.6522 0.10372-0.17964 0.36286-0.184 0.67082-0.0062 0.17537 0.10125 0.35845 0.25828 0.49924 0.4194l0.24178-0.2311c-0.13339-0.17396-0.32074-0.33346-0.53888-0.4594-0.53465-0.30868-1.0126-0.27099-1.2374 0.11824-0.42721 0.73996 0.97815 1.1407 0.68675 1.6454-0.10865 0.1882-0.3372 0.19882-0.6195 0.03583-0.21814-0.12594-0.47442-0.35374-0.63822-0.57379l-0.24178 0.2311c0.17351 0.24275 0.42551 0.46808 0.68642 0.61872zm1.3848 0.74251 0.34218 0.19755 1.1903-2.0616-0.34218-0.19755zm1.6447-2.4437c0.15398 0.0889 0.29566 0.05094 0.38456-0.10304 0.0889-0.15398 0.05094-0.29566-0.10304-0.38456-0.15398-0.0889-0.29566-0.05094-0.38456 0.10304-0.0889 0.15398-0.05094 0.29566 0.10304 0.38456zm2.1791 4.6514 0.34218 0.19756 0.78034-1.3516c0.26423-0.45766 0.13522-0.92565-0.32244-1.1899-0.29513-0.17039-0.66006-0.21-1.0048-0.10678l-0.04467 0.26506c0.26806-0.07906 0.54727-0.04902 0.78252 0.0868 0.32934 0.19015 0.40033 0.48206 0.20771 0.81568zm-2.7716-1.6002 0.34218 0.19756 1.052-1.8221 0.03564-0.29879-0.23952-0.13829zm1.3858 0.8001 0.34218 0.19756 0.78035-1.3516c0.26423-0.45766 0.13522-0.92565-0.31817-1.1874-0.29941-0.17286-0.66434-0.21247-1.0091-0.10925l-0.04467 0.26506c0.26806-0.07906 0.54727-0.04902 0.78252 0.0868 0.32934 0.19015 0.40033 0.48206 0.20771 0.81568z" aria-label="Disruptivsim
"/>
  </mask>
 </defs>
 <g stroke="#ef562f">
  <path d="m42.5 42.5v34.836l30.745-17.418v-34.836z" fill="url(#pattern25)" stroke-width="1.0106"/>
  <path d="m42.5 42.5 30.745-17.418-30.745-17.418-30.745 17.418z" fill="none" stroke-width="1.0106"/>
  <path transform="matrix(1.0201 0 0 1.001 -8.7415 -9.7543)" d="m20.092 34.8v34.8l30.138 17.4v-34.8z" fill="#ef562f" mask="url(#mask-powermask-path-effect31)"/>
  <path d="m42.5 7.6638-30.745 17.418v34.836l30.745 17.418 30.745-17.418v-34.836z" fill="none" stroke-width="1.0106"/>
  <path d="m42.5 0.69685-36.894 20.902v41.803l36.894 20.902 36.894-20.902v-41.803z" fill="none" stroke-width="1.2126"/>
 </g>
</svg>
