<?xml version="1.0" encoding="UTF-8"?>
<svg width="50px" height="50px" version="1.1" viewBox="0 0 50 50" xmlns="http://www.w3.org/2000/svg">
 <path d="m22.205 2c-0.48953 2.593e-4 -0.90693 0.35484-0.98633 0.83789l-0.97266 5.9551c-1.1696 0.34023-2.2849 0.7993-3.3359 1.3711l-4.9141-3.5098c-0.39728-0.28369-0.94131-0.23911-1.2871 0.10547l-3.8906 3.8867c-0.3432 0.34344-0.39015 0.88376-0.11133 1.2812l3.457 4.9453c-0.58061 1.0572-1.0499 2.1788-1.3984 3.3594l-5.9297 0.98633c-0.4815 0.0811-0.83404 0.49805-0.83398 0.98633v5.5c-8.804e-4 0.48518 0.3466 0.901 0.82422 0.98633l5.9336 1.0508c0.3467 1.1786 0.81296 2.3009 1.3945 3.3594l-3.5 4.8965c-0.28369 0.39728-0.23911 0.94131 0.10547 1.2871l3.8887 3.8906c0.34265 0.34275 0.88175 0.39048 1.2793 0.11328l4.9551-3.4688c1.0542 0.57517 2.1722 1.0376 3.3457 1.3809l0.99023 5.9629c0.08025 0.48228 0.49742 0.83584 0.98633 0.83594h5.5c0.4858 7.13e-4 0.90184-0.34778 0.98633-0.82617l1.0605-5.9863c1.1687-0.3485 2.2814-0.8178 3.3301-1.3965l4.9883 3.5c0.39749 0.27882 0.93781 0.23187 1.2812-0.11133l3.8887-3.8926c0.34612-0.34687 0.38995-0.89343 0.10352-1.291l-3.5566-4.9375c0.27797-0.51013 0.52952-1.0352 0.75383-1.5742 0.23458-0.56378 0.43936-1.1429 0.61336-1.7363l6.0176-1.0547c0.47839-0.08449 0.82688-0.50053 0.82617-0.98633v-5.5c-2.59e-4 -0.48953-0.35484-0.90693-0.83789-0.98633l-6.0078-0.98242c-0.34266-1.1595-0.80206-2.2636-1.3711-3.3066l3.5078-4.998c0.27882-0.39749 0.23187-0.93781-0.11133-1.2812l-3.8906-3.8887c-0.34687-0.34612-0.89343-0.38995-1.291-0.10352l-4.9238 3.541c-1.0491-0.57636-2.1626-1.0432-3.334-1.3887l-1.0469-5.9844c-0.083643-0.47917-0.49991-0.82867-0.98633-0.82812zm0.85156 2h3.8086l0.99609 5.6855c0.06772 0.38959 0.35862 0.70269 0.74219 0.79883 1.4625 0.36446 2.8361 0.94217 4.0898 1.7012 0.34265 0.20761 0.77613 0.1907 1.1016-0.04297l4.6797-3.3633 2.6934 2.6934-3.332 4.748c-0.22737 0.3236-0.24268 0.7508-0.03906 1.0898 0.75149 1.2509 1.3215 2.6158 1.6855 4.0703 0.0969 0.38717 0.41472 0.67966 0.80859 0.74414l5.707 0.93359v3.8086l-5.7188 1.0039c-0.3899 0.06902-0.70237 0.36157-0.79688 0.74609-0.35988 1.4526-0.93019 2.8175-1.6816 4.0684-0.20617 0.34256-0.18851 0.775 0.04492 1.0996l3.3789 4.6895-2.6934 2.6953-4.7402-3.3262c-0.32527-0.22784-0.75452-0.24163-1.0938-0.03516-1.2475 0.75899-2.6225 1.3394-4.0801 1.709-0.38168 0.09622-0.67142 0.40737-0.74024 0.79492l-1.0098 5.6875h-3.8145l-0.94141-5.6621c-0.06549-0.39365-0.35874-0.7107-0.74609-0.80664-1.4634-0.36069-2.8431-0.93754-4.1055-1.6953-0.33858-0.20276-0.76473-0.18746-1.0879 0.039062l-4.7031 3.2949-2.6953-2.6992 3.3242-4.6465c0.23221-0.3254 0.24834-0.75782 0.04102-1.0996-0.76602-1.2658-1.3454-2.6454-1.7109-4.1152-0.09555-0.38244-0.40684-0.67307-0.79492-0.74219l-5.6309-1v-3.8145l5.627-0.93555c0.39312-0.06519 0.71002-0.35754 0.80664-0.74414 0.36873-1.4749 0.94778-2.8543 1.7109-4.1172 0.20562-0.33876 0.19183-0.76697-0.03516-1.0918l-3.2852-4.6953 2.6973-2.6953 4.6621 3.332c0.32413 0.23112 0.75447 0.248 1.0957 0.04297 1.2557-0.75414 2.6386-1.3264 4.1035-1.6855 0.38926-0.09584 0.68369-0.41486 0.74805-0.81055zm1.9434 13c-4.4064 0-8 3.5936-8 8s3.5936 8 8 8 8-3.5936 8-8-3.5936-8-8-8zm0 2c3.3256 0 6 2.6744 6 6s-2.6744 6-6 6-6-2.6744-6-6 2.6744-6 6-6z" fill="#cdd6f4"/>
</svg>
